<?xml version="1.0" encoding="utf-8"?><svg viewBox="0 0 48 36" xmlns="http://www.w3.org/2000/svg" xmlns:xlink="http://www.w3.org/1999/xlink"><style>:root>svg{display:none}:root>svg:target{display:block}</style><svg fill="none" viewBox="0 0 24 24" id="airpods" xmlns="http://www.w3.org/2000/svg"><path opacity=".3" fill-rule="evenodd" clip-rule="evenodd" d="M14 11.472a5.98 5.98 0 003 1.445V20.5a1.5 1.5 0 01-3 0v-9.028zM7 12.917a5.98 5.98 0 003-1.445V20.5a1.5 1.5 0 01-3 0v-7.583z" fill="#99EFD0"/><path fill-rule="evenodd" clip-rule="evenodd" d="M18 12a5 5 0 100-10 5 5 0 000 10zm-4-4.75a.75.75 0 01.75-.75h.5a.75.75 0 010 1.5h-.5a.75.75 0 01-.75-.75zM21 5a1 1 0 00-1 1v2a1 1 0 102 0V6a1 1 0 00-1-1zM6 12A5 5 0 106 2a5 5 0 000 10zm2-4.75a.75.75 0 01.75-.75h.5a.75.75 0 010 1.5h-.5A.75.75 0 018 7.25zM3 5a1 1 0 00-1 1v2a1 1 0 002 0V6a1 1 0 00-1-1z" fill="#99EFD0"/></svg><svg fill="none" viewBox="0 0 24 24" id="attachment" xmlns="http://www.w3.org/2000/svg"><path opacity=".3" fill-rule="evenodd" clip-rule="evenodd" d="M4.222 14.121a2 2 0 000 2.829l2.828 2.828a2 2 0 002.829 0l2.828-2.828a2 2 0 000-2.829L12 13.414l-2.121 2.122a1 1 0 01-1.415-1.415L10.586 12l-.707-.707a2 2 0 00-2.829 0L4.222 14.12z" fill="#99EFD0"/><path fill-rule="evenodd" clip-rule="evenodd" d="M11.293 7.05a2 2 0 000 2.829l.707.707 2.121-2.122a1 1 0 111.415 1.415L13.414 12l.707.707a2 2 0 002.829 0l2.828-2.828a2 2 0 000-2.829L16.95 4.222a2 2 0 00-2.829 0L11.293 7.05z" fill="#99EFD0"/></svg><svg fill="none" viewBox="0 0 24 24" id="bulb" xmlns="http://www.w3.org/2000/svg"><path opacity=".3" fill-rule="evenodd" clip-rule="evenodd" d="M12 17a8 8 0 100-16 8 8 0 000 16z" fill="#99EFD0"/><path opacity=".3" fill-rule="evenodd" clip-rule="evenodd" d="M6.538 9l4.03 10.362 1.408-.547 1.398.552L17.47 9H6.538zm2.924 2h5.068l-2.554 6.465L9.462 11z" fill="#99EFD0"/><path opacity=".3" d="M10 22h4a2 2 0 11-4 0z" fill="#99EFD0"/><path fill-rule="evenodd" clip-rule="evenodd" d="M8 17a1 1 0 011-1h6a1 1 0 110 2 1 1 0 110 2 1 1 0 110 2H9a1 1 0 110-2 1 1 0 110-2 1 1 0 01-1-1z" fill="#99EFD0"/></svg><svg fill="none" viewBox="0 0 8 14" id="facebook" xmlns="http://www.w3.org/2000/svg"><path d="M5.457 14V7.7h2.186L8 4.9H5.457V3.536c0-.72.021-1.436 1.173-1.436h1.166V.098C7.796.068 6.794 0 5.78 0 3.664 0 2.339 1.16 2.339 3.29V4.9H0v2.8h2.339V14h3.118z" fill="#fff"/></svg><svg fill="none" viewBox="0 0 24 24" id="flip" xmlns="http://www.w3.org/2000/svg"><path opacity=".3" fill-rule="evenodd" clip-rule="evenodd" d="M3.274 18.314A.5.5 0 003.74 19H8.5a.5.5 0 00.5-.5V6.596c0-.55-.76-.697-.964-.185L3.274 18.314z" fill="#99EFD0"/><path fill-rule="evenodd" clip-rule="evenodd" d="M20.726 18.314a.5.5 0 01-.464.686H15.5a.5.5 0 01-.5-.5V6.596c0-.55.76-.697.964-.185l4.762 11.903z" fill="#99EFD0"/><rect opacity=".3" x="11" y="2" width="2" height="20" rx="1" fill="#99EFD0"/></svg><svg fill="none" viewBox="0 0 13 13" id="google" xmlns="http://www.w3.org/2000/svg"><path d="M12.393 5.302H6.627c0 .6 0 1.8-.004 2.399h3.341c-.128.6-.582 1.44-1.223 1.862 0 0-.001.004-.002.003-.853.563-1.979.69-2.814.523a3.71 3.71 0 01-2.768-2.417c.003-.002.005-.018.007-.02-.264-.748-.264-1.75 0-2.35h-.001C3.503 4.2 4.57 3.195 5.882 2.92c1.055-.223 2.245.019 3.12.838.117-.114 1.612-1.574 1.724-1.692C7.735-.644 2.946.309 1.154 3.807l-.004.006a5.86 5.86 0 00.007 5.379l-.007.005a6.108 6.108 0 003.888 3.099c1.807.473 4.106.15 5.646-1.243l.002.001c1.305-1.175 2.117-3.177 1.707-5.752z" fill="#fff"/></svg><svg fill="none" viewBox="0 0 24 24" id="lte" xmlns="http://www.w3.org/2000/svg"><path opacity=".3" fill-rule="evenodd" clip-rule="evenodd" d="M7.256 18.93L5.98 20.467A10.977 10.977 0 012 12c0-3.31 1.473-6.383 3.969-8.46l1.279 1.538A8.978 8.978 0 004 12a8.978 8.978 0 003.256 6.93zm9.488 0l1.277 1.538A10.977 10.977 0 0022 12c0-3.31-1.473-6.383-3.969-8.46l-1.279 1.538A8.977 8.977 0 0120 12a8.978 8.978 0 01-3.256 6.93zm-2.566-3.07l1.273 1.543A6.986 6.986 0 0018 12c0-2.11-.94-4.07-2.534-5.39L14.19 8.15A4.987 4.987 0 0116 12a4.987 4.987 0 01-1.822 3.86zM8.55 17.403l1.273-1.543A4.987 4.987 0 018 12c0-1.509.671-2.906 1.81-3.85L8.535 6.61A6.986 6.986 0 006 12c0 2.117.947 4.082 2.55 5.403z" fill="#99EFD0"/><path fill-rule="evenodd" clip-rule="evenodd" d="M12 14a2 2 0 100-4 2 2 0 000 4z" fill="#99EFD0"/></svg><svg fill="none" viewBox="0 0 36 36" id="lte--big" xmlns="http://www.w3.org/2000/svg"><path opacity=".3" fill-rule="evenodd" clip-rule="evenodd" d="M10.884 28.394l-1.916 2.308A16.466 16.466 0 013 18c0-4.966 2.21-9.575 5.953-12.69l1.919 2.307A13.466 13.466 0 006 18c0 4.071 1.81 7.843 4.884 10.394zm14.232 0l1.916 2.308A16.466 16.466 0 0033 18c0-4.966-2.21-9.575-5.953-12.69l-1.919 2.307A13.466 13.466 0 0130 18c0 4.071-1.81 7.843-4.884 10.394zm-3.848-4.604l1.908 2.315A10.48 10.48 0 0027 18a10.48 10.48 0 00-3.8-8.086l-1.916 2.31A7.48 7.48 0 0124 18a7.48 7.48 0 01-2.732 5.79zm-8.444 2.315l1.908-2.315A7.48 7.48 0 0112 18a7.48 7.48 0 012.716-5.776L12.8 9.914A10.48 10.48 0 009 18a10.48 10.48 0 003.824 8.105z" fill="#99EFD0"/><path fill-rule="evenodd" clip-rule="evenodd" d="M18 21a3 3 0 100-6 3 3 0 000 6z" fill="#99EFD0"/></svg><svg fill="none" viewBox="0 0 32 18" id="path" xmlns="http://www.w3.org/2000/svg"><path d="M2 16.115l10.605-9.37 5.088 5.347L29.423 2l-.367 6.038L29.422 2H22.72" stroke="#fff" stroke-width="3.6" stroke-linecap="round" stroke-linejoin="round"/></svg><svg fill="none" viewBox="0 0 48 28" id="path--big" xmlns="http://www.w3.org/2000/svg"><path d="M3.479 24.568L19.278 10.61l7.58 7.964L44.332 3.54l-.547 8.995.547-8.995h-9.987" stroke="#fff" stroke-width="5.363" stroke-linecap="round" stroke-linejoin="round"/></svg><svg fill="none" viewBox="0 0 36 36" id="swiss-knife" xmlns="http://www.w3.org/2000/svg"><path opacity=".3" fill-rule="evenodd" clip-rule="evenodd" d="M23.676 21H30V3a9 9 0 00-9 9v6.257L11.743 9a6 6 0 000 8.485l7.724 7.724L23.677 21z" fill="#99EFD0"/><path fill-rule="evenodd" clip-rule="evenodd" d="M6.5 18a5 5 0 00-5 5v3.5a5 5 0 005 5h23a5 5 0 005-5V23a5 5 0 00-5-5h-23zm25 6.75a2.25 2.25 0 11-4.5 0 2.25 2.25 0 014.5 0z" fill="#99EFD0"/></svg><svg fill="none" viewBox="0 0 24 24" id="thunder-move" xmlns="http://www.w3.org/2000/svg"><path fill-rule="evenodd" clip-rule="evenodd" d="M15 19.523c0 .742.962 1.033 1.374.416l5.849-8.773A.75.75 0 0021.599 10H17V4.477c0-.742-.962-1.033-1.374-.416l-5.849 8.773A.75.75 0 0010.401 14H15v5.523z" fill="#99EFD0"/><path opacity=".3" fill-rule="evenodd" clip-rule="evenodd" d="M3 6.5A1.5 1.5 0 014.5 5h5a1.5 1.5 0 010 3h-5A1.5 1.5 0 013 6.5zm0 12A1.5 1.5 0 014.5 17h5a1.5 1.5 0 010 3h-5A1.5 1.5 0 013 18.5zM2.5 11a1.5 1.5 0 000 3h4a1.5 1.5 0 000-3h-4z" fill="#99EFD0"/></svg><svg fill="none" viewBox="0 0 14 12" id="twitter" xmlns="http://www.w3.org/2000/svg"><path d="M4.403 12c5.283 0 8.172-4.617 8.172-8.62 0-.132 0-.263-.008-.393A6.022 6.022 0 0014 1.419a5.49 5.49 0 01-1.65.477A3.02 3.02 0 0013.615.219a5.579 5.579 0 01-1.825.736C10.702-.265 8.882-.324 7.725.823c-.745.74-1.062 1.844-.83 2.896C4.584 3.596 2.432 2.446.974.553c-.763 1.385-.373 3.155.89 4.044A2.739 2.739 0 01.56 4.22v.038c0 1.442.965 2.684 2.304 2.97-.422.122-.866.14-1.296.052.376 1.234 1.455 2.08 2.683 2.104a5.575 5.575 0 01-3.567 1.3c-.228-.001-.457-.015-.684-.044a7.828 7.828 0 004.403 1.359" fill="#fff"/></svg></svg>